<svg width="46" height="69" fill="none" xmlns="http://www.w3.org/2000/svg"><path d="M44.465 47.037c.275 0 .539-.11.733-.307.195-.197.304-.463.304-.742 0-13.62-8.483-22.543-21.71-22.983V1.049c0-.278-.11-.545-.304-.742a1.031 1.031 0 0 0-1.467 0 1.055 1.055 0 0 0-.304.742v21.956C8.484 23.445 0 32.367 0 45.988c0 .279.11.545.304.742.194.197.458.307.733.307h13.517a8.65 8.65 0 0 0 2.784 5.164 8.473 8.473 0 0 0 5.41 2.157 8.473 8.473 0 0 0 5.414-2.155 8.649 8.649 0 0 0 2.786-5.166h13.517ZM22.748 25.081c9.762 0 20.182 5.245 20.66 19.859H2.073c.491-14.614 10.91-19.859 20.674-19.859Zm0 27.18a6.431 6.431 0 0 1-3.938-1.549 6.56 6.56 0 0 1-2.154-3.675h12.19a6.56 6.56 0 0 1-2.157 3.678 6.43 6.43 0 0 1-3.941 1.545Zm22.844 7.537-6.437-4.964a1.03 1.03 0 0 0-1.456.199 1.06 1.06 0 0 0 .198 1.472l6.437 4.964a1.03 1.03 0 0 0 1.455-.199 1.055 1.055 0 0 0 .071-1.165 1.048 1.048 0 0 0-.268-.307ZM8.027 54.75 1.77 59.938a1.041 1.041 0 0 0-.483.724 1.06 1.06 0 0 0 .227.843 1.038 1.038 0 0 0 .779.377 1.028 1.028 0 0 0 .79-.35l6.265-5.181a1.045 1.045 0 0 0 .397-.712 1.06 1.06 0 0 0-.228-.783 1.04 1.04 0 0 0-.715-.38 1.028 1.028 0 0 0-.768.253l-.007.02Zm15.025 4.831c-.275 0-.539.11-.733.308a1.055 1.055 0 0 0-.304.741v7.321c0 .278.109.545.303.742a1.031 1.031 0 0 0 1.467 0c.195-.197.304-.464.304-.742v-7.32c0-.279-.11-.546-.304-.742a1.031 1.031 0 0 0-.733-.308Z" fill="#fff"/></svg>